<?xml version="1.0" encoding="utf-8"?>
<!-- Generator: Adobe Illustrator 25.4.1, SVG Export Plug-In . SVG Version: 6.00 Build 0)  -->
<svg version="1.1" id="Calque_1" xmlns="http://www.w3.org/2000/svg" xmlns:xlink="http://www.w3.org/1999/xlink" x="0px" y="0px"
	 viewBox="0 0 441.2 111.7" style="enable-background:new 0 0 441.2 111.7;" xml:space="preserve">
<style type="text/css">
	.st0{fill:#F2F2F2;stroke:#2C2C25;stroke-width:0.25;stroke-miterlimit:10;}
	.st1{fill:#FFCC17;stroke:#2C2C25;stroke-width:0.25;stroke-miterlimit:10;}
</style>
<g>
	<g>
		<path class="st0" d="M62.7,71.6l11.9,9.6C68.3,91,57.4,97,45.7,97c-18.9,0-34.1-15.2-34.1-34.1c0-18.8,15.2-34,34.1-34
			c15.9-0.3,31.4,12.2,33.6,28.2H28.3c-0.1,2-0.3,3.9-0.3,5.8c0,17.3,7.9,31.5,17.7,31.5C53.7,94.4,60.6,84.7,62.7,71.6z M28.7,54.4
			h34.1c0-0.1,0-0.1,0-0.3l-0.1-0.4v-0.1l-0.4-1.7c-1.4-7.7-7.1-20.3-16.5-20.3C37.6,31.5,30.8,41.2,28.7,54.4z"/>
		<path class="st0" d="M160.4,97h-34.9v-2.8c3.5,0,6.4-2.9,6.4-6.4v-47c0-5.8-3.3-9.3-8-9.3c-4.6,0-11.2,3.9-15.1,8.4v47.9
			c0,3.5,2.9,6.4,6.6,6.4V97H80.5v-2.8c3.5,0,6.4-2.9,6.4-6.4V28.8l21.9,3v5.1c0,0,6.8-8.1,17.7-8.1c13.5,0,27.3,8.3,27.3,23.1v36
			c0,3.5,2.9,6.4,6.6,6.4V97z"/>
		<path class="st0" d="M243,97h-34.9v-2.8c3.5,0,6.4-2.9,6.4-6.4v-47c0-5.8-3.3-9.3-8-9.3c-4.6,0-11.2,3.9-15.1,8.4v47.9
			c0,3.5,2.9,6.4,6.6,6.4V97H163v-2.8c3.5,0,6.4-2.9,6.4-6.4V28.8l21.9,3v5.1c0,0,6.8-8.1,17.7-8.1c13.5,0,27.3,8.3,27.3,23.1v36
			c0,3.5,2.9,6.4,6.6,6.4V97z"/>
		<path class="st0" d="M434.5,97h-34.9v-2.8c3.5,0,6.4-2.9,6.4-6.4v-47c0-5.8-3.3-9.3-8-9.3c-4.6,0-11.2,3.9-15.1,8.4v47.9
			c0,3.5,2.9,6.4,6.6,6.4V97h-34.9v-2.8c3.5,0,6.4-2.9,6.4-6.4V5.1l21.9,10.2v21.5c0,0,6.8-8,17.7-8c13.5,0,27.3,8,27.3,23v36
			c0,1.7,0.7,3.4,2,4.6c1.2,1.2,2.9,1.8,4.6,1.8V97z"/>
	</g>
	<g>
		<polygon class="st1" points="299.3,36.3 324,36.3 354.6,66.1 323.3,97 299.3,96.5 329.3,66.6 		"/>
		<polygon class="st1" points="298.2,36.3 273.5,36.3 243,66.1 274.3,97 298.2,96.5 268.3,66.6 		"/>
	</g>
</g>
</svg>
