<?xml version="1.0" encoding="utf-8"?>
<!-- Generator: Adobe Illustrator 25.4.1, SVG Export Plug-In . SVG Version: 6.00 Build 0)  -->
<svg version="1.1" id="Calque_1" xmlns="http://www.w3.org/2000/svg" xmlns:xlink="http://www.w3.org/1999/xlink" x="0px" y="0px"
	 viewBox="0 0 441.3 106.3" style="enable-background:new 0 0 441.3 106.3;" xml:space="preserve">
<style type="text/css">
	.st0{fill:#2C2C25;}
	.st1{fill:#FFCC17;stroke:#2C2C25;stroke-width:0.25;stroke-miterlimit:10;}
</style>
<g>
	<g>
		<path class="st0" d="M59.4,71.9l11.9,9.6C65,91.3,54.1,97.3,42.4,97.3c-18.9,0-34.1-15.2-34.1-34.1c0-18.8,15.2-34,34.1-34
			C58.3,29,73.8,41.4,76,57.4H25c-0.1,2-0.3,3.9-0.3,5.8c0,17.3,7.9,31.5,17.7,31.5C50.4,94.7,57.3,85,59.4,71.9z M25.4,54.7h34.1
			c0-0.1,0-0.1,0-0.3L59.4,54v-0.1L59,52.2c-1.4-7.7-7.1-20.3-16.5-20.3C34.3,31.8,27.5,41.6,25.4,54.7z"/>
		<path class="st0" d="M157.1,97.3h-34.9v-2.8c3.5,0,6.4-2.9,6.4-6.4v-47c0-5.8-3.3-9.3-8-9.3c-4.6,0-11.2,3.9-15.1,8.4v47.9
			c0,3.5,2.9,6.4,6.6,6.4v2.8H77.2v-2.8c3.5,0,6.4-2.9,6.4-6.4V29.1l21.9,3v5.1c0,0,6.8-8.1,17.7-8.1c13.5,0,27.3,8.3,27.3,23.1v36
			c0,3.5,2.9,6.4,6.6,6.4V97.3z"/>
		<path class="st0" d="M239.7,97.3h-34.9v-2.8c3.5,0,6.4-2.9,6.4-6.4v-47c0-5.8-3.3-9.3-8-9.3c-4.6,0-11.2,3.9-15.1,8.4v47.9
			c0,3.5,2.9,6.4,6.6,6.4v2.8h-34.9v-2.8c3.5,0,6.4-2.9,6.4-6.4V29.1l21.9,3v5.1c0,0,6.8-8.1,17.7-8.1c13.5,0,27.3,8.3,27.3,23.1v36
			c0,3.5,2.9,6.4,6.6,6.4V97.3z"/>
		<path class="st0" d="M431.2,97.3h-34.9v-2.8c3.5,0,6.4-2.9,6.4-6.4v-47c0-5.8-3.3-9.3-8-9.3c-4.6,0-11.2,3.9-15.1,8.4v47.9
			c0,3.5,2.9,6.4,6.6,6.4v2.8h-34.9v-2.8c3.5,0,6.4-2.9,6.4-6.4V5.5l21.9,10.2v21.5c0,0,6.8-8,17.7-8c13.5,0,27.3,8,27.3,23v36
			c0,1.7,0.7,3.4,2,4.6c1.2,1.2,2.9,1.8,4.6,1.8V97.3z"/>
	</g>
	<g>
		<polygon class="st1" points="296,36.6 320.8,36.6 351.3,66.4 320,97.3 296,96.8 326,67 		"/>
		<polygon class="st1" points="294.9,36.6 270.2,36.6 239.7,66.4 271,97.3 294.9,96.8 265,67 		"/>
	</g>
</g>
</svg>
